<mxfile host="app.diagrams.net" modified="2024-01-30T18:29:37.537Z" agent="Mozilla/5.0 (Windows NT 10.0; Win64; x64; rv:122.0) Gecko/20100101 Firefox/122.0" etag="uyUGawjS_7Zo_Fb0HKCD" version="23.0.2" type="device">
  <diagram name="Page-1" id="aBikVVtTy6mF3epG6HKy">
    <mxGraphModel dx="2195" dy="723" grid="1" gridSize="10" guides="1" tooltips="1" connect="1" arrows="1" fold="1" page="1" pageScale="1" pageWidth="850" pageHeight="1100" math="0" shadow="0">
      <root>
        <mxCell id="0" />
        <mxCell id="1" parent="0" />
        <mxCell id="7h5hDAGTXKlzVHHUjLdl-1" value="INSURANCE" style="rounded=0;whiteSpace=wrap;html=1;" parent="1" vertex="1">
          <mxGeometry x="-150" y="205" width="120" height="60" as="geometry" />
        </mxCell>
        <mxCell id="7h5hDAGTXKlzVHHUjLdl-2" value="CLIENT" style="rounded=0;whiteSpace=wrap;html=1;" parent="1" vertex="1">
          <mxGeometry x="230" y="205" width="120" height="60" as="geometry" />
        </mxCell>
        <mxCell id="7h5hDAGTXKlzVHHUjLdl-3" value="acquires" style="shape=rhombus;perimeter=rhombusPerimeter;whiteSpace=wrap;html=1;align=center;" parent="1" vertex="1">
          <mxGeometry x="40" y="210" width="120" height="60" as="geometry" />
        </mxCell>
        <mxCell id="7h5hDAGTXKlzVHHUjLdl-4" value="" style="endArrow=none;html=1;rounded=0;exitX=1.032;exitY=0.586;exitDx=0;exitDy=0;entryX=0;entryY=0.5;entryDx=0;entryDy=0;exitPerimeter=0;" parent="1" source="7h5hDAGTXKlzVHHUjLdl-1" target="7h5hDAGTXKlzVHHUjLdl-3" edge="1">
          <mxGeometry width="50" height="50" relative="1" as="geometry">
            <mxPoint x="-20" y="240" as="sourcePoint" />
            <mxPoint x="170" y="290" as="targetPoint" />
          </mxGeometry>
        </mxCell>
        <mxCell id="7h5hDAGTXKlzVHHUjLdl-5" value="" style="endArrow=none;html=1;rounded=0;exitX=1;exitY=0.5;exitDx=0;exitDy=0;entryX=-0.036;entryY=0.574;entryDx=0;entryDy=0;entryPerimeter=0;" parent="1" target="7h5hDAGTXKlzVHHUjLdl-2" edge="1">
          <mxGeometry width="50" height="50" relative="1" as="geometry">
            <mxPoint x="160" y="239.66" as="sourcePoint" />
            <mxPoint x="210" y="240" as="targetPoint" />
          </mxGeometry>
        </mxCell>
        <mxCell id="7h5hDAGTXKlzVHHUjLdl-6" value="(1, 1)" style="text;html=1;align=center;verticalAlign=middle;resizable=0;points=[];autosize=1;strokeColor=none;fillColor=none;" parent="1" vertex="1">
          <mxGeometry x="-25" y="208" width="50" height="30" as="geometry" />
        </mxCell>
        <mxCell id="7h5hDAGTXKlzVHHUjLdl-7" value="(0, n)" style="text;html=1;align=center;verticalAlign=middle;resizable=0;points=[];autosize=1;strokeColor=none;fillColor=none;" parent="1" vertex="1">
          <mxGeometry x="170" y="208" width="50" height="30" as="geometry" />
        </mxCell>
        <mxCell id="7h5hDAGTXKlzVHHUjLdl-8" value="" style="ellipse;whiteSpace=wrap;html=1;aspect=fixed;" parent="1" vertex="1">
          <mxGeometry x="-225" y="207.5" width="10" height="10" as="geometry" />
        </mxCell>
        <mxCell id="7h5hDAGTXKlzVHHUjLdl-9" value="" style="endArrow=none;html=1;rounded=0;exitX=1;exitY=0.5;exitDx=0;exitDy=0;entryX=-0.014;entryY=0.358;entryDx=0;entryDy=0;entryPerimeter=0;" parent="1" source="7h5hDAGTXKlzVHHUjLdl-8" target="7h5hDAGTXKlzVHHUjLdl-1" edge="1">
          <mxGeometry width="50" height="50" relative="1" as="geometry">
            <mxPoint x="-210" y="287.5" as="sourcePoint" />
            <mxPoint x="-170" y="232.5" as="targetPoint" />
            <Array as="points">
              <mxPoint x="-180" y="210" />
            </Array>
          </mxGeometry>
        </mxCell>
        <mxCell id="7h5hDAGTXKlzVHHUjLdl-10" value="" style="ellipse;whiteSpace=wrap;html=1;aspect=fixed;fillColor=none;" parent="1" vertex="1">
          <mxGeometry x="-225" y="232.5" width="10" height="10" as="geometry" />
        </mxCell>
        <mxCell id="7h5hDAGTXKlzVHHUjLdl-11" value="" style="endArrow=none;html=1;rounded=0;exitX=1;exitY=0.5;exitDx=0;exitDy=0;entryX=-0.003;entryY=0.596;entryDx=0;entryDy=0;entryPerimeter=0;" parent="1" source="7h5hDAGTXKlzVHHUjLdl-10" target="7h5hDAGTXKlzVHHUjLdl-1" edge="1">
          <mxGeometry width="50" height="50" relative="1" as="geometry">
            <mxPoint x="-200" y="297.5" as="sourcePoint" />
            <mxPoint x="-170" y="245.5" as="targetPoint" />
            <Array as="points">
              <mxPoint x="-180" y="240" />
            </Array>
          </mxGeometry>
        </mxCell>
        <mxCell id="7h5hDAGTXKlzVHHUjLdl-12" value="" style="ellipse;whiteSpace=wrap;html=1;aspect=fixed;fillColor=#007FFF;" parent="1" vertex="1">
          <mxGeometry x="-225" y="185" width="10" height="10" as="geometry" />
        </mxCell>
        <mxCell id="7h5hDAGTXKlzVHHUjLdl-13" value="" style="endArrow=none;html=1;rounded=0;exitX=1;exitY=0.5;exitDx=0;exitDy=0;entryX=-0.004;entryY=0.106;entryDx=0;entryDy=0;entryPerimeter=0;" parent="1" source="7h5hDAGTXKlzVHHUjLdl-12" target="7h5hDAGTXKlzVHHUjLdl-1" edge="1">
          <mxGeometry width="50" height="50" relative="1" as="geometry">
            <mxPoint x="-205" y="262.5" as="sourcePoint" />
            <mxPoint x="-170" y="217.5" as="targetPoint" />
            <Array as="points">
              <mxPoint x="-190" y="190" />
            </Array>
          </mxGeometry>
        </mxCell>
        <mxCell id="7h5hDAGTXKlzVHHUjLdl-14" value="id" style="text;html=1;align=center;verticalAlign=middle;resizable=0;points=[];autosize=1;strokeColor=none;fillColor=none;" parent="1" vertex="1">
          <mxGeometry x="-270" y="175" width="30" height="30" as="geometry" />
        </mxCell>
        <mxCell id="7h5hDAGTXKlzVHHUjLdl-15" value="percentage_covered" style="text;html=1;align=center;verticalAlign=middle;resizable=0;points=[];autosize=1;strokeColor=none;fillColor=none;" parent="1" vertex="1">
          <mxGeometry x="-365" y="195" width="140" height="30" as="geometry" />
        </mxCell>
        <mxCell id="7h5hDAGTXKlzVHHUjLdl-16" value="start_date" style="text;html=1;align=center;verticalAlign=middle;resizable=0;points=[];autosize=1;strokeColor=none;fillColor=none;" parent="1" vertex="1">
          <mxGeometry x="-310" y="222.5" width="80" height="30" as="geometry" />
        </mxCell>
        <mxCell id="7h5hDAGTXKlzVHHUjLdl-17" value="" style="endArrow=none;html=1;rounded=0;exitX=0.5;exitY=0;exitDx=0;exitDy=0;entryX=0.5;entryY=1;entryDx=0;entryDy=0;" parent="1" source="7h5hDAGTXKlzVHHUjLdl-3" target="7h5hDAGTXKlzVHHUjLdl-18" edge="1">
          <mxGeometry width="50" height="50" relative="1" as="geometry">
            <mxPoint x="70" y="200" as="sourcePoint" />
            <mxPoint x="100" y="180" as="targetPoint" />
          </mxGeometry>
        </mxCell>
        <mxCell id="7h5hDAGTXKlzVHHUjLdl-18" value="" style="ellipse;whiteSpace=wrap;html=1;aspect=fixed;" parent="1" vertex="1">
          <mxGeometry x="95" y="157.5" width="10" height="10" as="geometry" />
        </mxCell>
        <mxCell id="7h5hDAGTXKlzVHHUjLdl-19" value="" style="endArrow=none;html=1;rounded=0;exitX=0.707;exitY=0.217;exitDx=0;exitDy=0;entryX=0.5;entryY=1;entryDx=0;entryDy=0;exitPerimeter=0;" parent="1" source="7h5hDAGTXKlzVHHUjLdl-3" target="7h5hDAGTXKlzVHHUjLdl-20" edge="1">
          <mxGeometry width="50" height="50" relative="1" as="geometry">
            <mxPoint x="140" y="227.5" as="sourcePoint" />
            <mxPoint x="140" y="197.5" as="targetPoint" />
          </mxGeometry>
        </mxCell>
        <mxCell id="7h5hDAGTXKlzVHHUjLdl-20" value="" style="ellipse;whiteSpace=wrap;html=1;aspect=fixed;" parent="1" vertex="1">
          <mxGeometry x="120" y="187.5" width="10" height="10" as="geometry" />
        </mxCell>
        <mxCell id="7h5hDAGTXKlzVHHUjLdl-21" value="end_date" style="text;html=1;strokeColor=none;fillColor=none;align=center;verticalAlign=middle;whiteSpace=wrap;rounded=0;" parent="1" vertex="1">
          <mxGeometry x="130" y="177.5" width="60" height="30" as="geometry" />
        </mxCell>
        <mxCell id="7h5hDAGTXKlzVHHUjLdl-22" value="" style="ellipse;whiteSpace=wrap;html=1;aspect=fixed;" parent="1" vertex="1">
          <mxGeometry x="415" y="235" width="10" height="10" as="geometry" />
        </mxCell>
        <mxCell id="7h5hDAGTXKlzVHHUjLdl-24" value="" style="ellipse;whiteSpace=wrap;html=1;aspect=fixed;fillColor=#007FFF;" parent="1" vertex="1">
          <mxGeometry x="415" y="195" width="10" height="10" as="geometry" />
        </mxCell>
        <mxCell id="7h5hDAGTXKlzVHHUjLdl-25" value="id_document_number" style="text;html=1;align=center;verticalAlign=middle;resizable=0;points=[];autosize=1;strokeColor=none;fillColor=none;" parent="1" vertex="1">
          <mxGeometry x="425" y="182.5" width="150" height="30" as="geometry" />
        </mxCell>
        <mxCell id="7h5hDAGTXKlzVHHUjLdl-27" value="" style="endArrow=none;html=1;rounded=0;exitX=0;exitY=0.5;exitDx=0;exitDy=0;entryX=1;entryY=0;entryDx=0;entryDy=0;" parent="1" source="7h5hDAGTXKlzVHHUjLdl-24" target="7h5hDAGTXKlzVHHUjLdl-2" edge="1">
          <mxGeometry width="50" height="50" relative="1" as="geometry">
            <mxPoint x="475" y="232.5" as="sourcePoint" />
            <mxPoint x="530" y="181" as="targetPoint" />
            <Array as="points">
              <mxPoint x="380" y="200" />
            </Array>
          </mxGeometry>
        </mxCell>
        <mxCell id="7h5hDAGTXKlzVHHUjLdl-28" value="" style="endArrow=none;html=1;rounded=0;exitX=0;exitY=0.5;exitDx=0;exitDy=0;entryX=1;entryY=0.5;entryDx=0;entryDy=0;" parent="1" source="7h5hDAGTXKlzVHHUjLdl-22" target="7h5hDAGTXKlzVHHUjLdl-2" edge="1">
          <mxGeometry width="50" height="50" relative="1" as="geometry">
            <mxPoint x="470" y="257.5" as="sourcePoint" />
            <mxPoint x="528" y="196" as="targetPoint" />
            <Array as="points">
              <mxPoint x="390" y="240" />
            </Array>
          </mxGeometry>
        </mxCell>
        <mxCell id="7h5hDAGTXKlzVHHUjLdl-30" value="name" style="text;html=1;align=center;verticalAlign=middle;resizable=0;points=[];autosize=1;strokeColor=none;fillColor=none;" parent="1" vertex="1">
          <mxGeometry x="430" y="222.5" width="60" height="30" as="geometry" />
        </mxCell>
        <mxCell id="7h5hDAGTXKlzVHHUjLdl-38" value="end_date" style="text;html=1;align=center;verticalAlign=middle;resizable=0;points=[];autosize=1;strokeColor=none;fillColor=none;" parent="1" vertex="1">
          <mxGeometry x="-310" y="245" width="80" height="30" as="geometry" />
        </mxCell>
        <mxCell id="7h5hDAGTXKlzVHHUjLdl-39" value="" style="endArrow=none;html=1;rounded=0;exitX=1;exitY=0.5;exitDx=0;exitDy=0;entryX=-0.001;entryY=0.801;entryDx=0;entryDy=0;entryPerimeter=0;" parent="1" source="7h5hDAGTXKlzVHHUjLdl-40" target="7h5hDAGTXKlzVHHUjLdl-1" edge="1">
          <mxGeometry width="50" height="50" relative="1" as="geometry">
            <mxPoint x="-200" y="325" as="sourcePoint" />
            <mxPoint x="-153" y="277.5" as="targetPoint" />
            <Array as="points" />
          </mxGeometry>
        </mxCell>
        <mxCell id="7h5hDAGTXKlzVHHUjLdl-40" value="" style="ellipse;whiteSpace=wrap;html=1;aspect=fixed;fillColor=none;" parent="1" vertex="1">
          <mxGeometry x="-225" y="260" width="10" height="10" as="geometry" />
        </mxCell>
        <mxCell id="7h5hDAGTXKlzVHHUjLdl-42" value="" style="endArrow=none;html=1;rounded=0;exitX=1;exitY=0.5;exitDx=0;exitDy=0;entryX=-0.009;entryY=0.971;entryDx=0;entryDy=0;entryPerimeter=0;" parent="1" source="7h5hDAGTXKlzVHHUjLdl-43" target="7h5hDAGTXKlzVHHUjLdl-1" edge="1">
          <mxGeometry width="50" height="50" relative="1" as="geometry">
            <mxPoint x="-190" y="335" as="sourcePoint" />
            <mxPoint x="-140" y="275" as="targetPoint" />
            <Array as="points">
              <mxPoint x="-180" y="280" />
            </Array>
          </mxGeometry>
        </mxCell>
        <mxCell id="7h5hDAGTXKlzVHHUjLdl-43" value="" style="ellipse;whiteSpace=wrap;html=1;aspect=fixed;fillColor=none;" parent="1" vertex="1">
          <mxGeometry x="-225" y="280" width="10" height="10" as="geometry" />
        </mxCell>
        <mxCell id="7h5hDAGTXKlzVHHUjLdl-44" value="annual_cost" style="text;html=1;align=center;verticalAlign=middle;resizable=0;points=[];autosize=1;strokeColor=none;fillColor=none;" parent="1" vertex="1">
          <mxGeometry x="-320" y="270" width="90" height="30" as="geometry" />
        </mxCell>
        <mxCell id="7h5hDAGTXKlzVHHUjLdl-45" value="" style="endArrow=classic;html=1;rounded=0;entryX=0.5;entryY=1;entryDx=0;entryDy=0;" parent="1" target="7h5hDAGTXKlzVHHUjLdl-1" edge="1">
          <mxGeometry width="50" height="50" relative="1" as="geometry">
            <mxPoint x="-90" y="340" as="sourcePoint" />
            <mxPoint x="-90" y="310" as="targetPoint" />
          </mxGeometry>
        </mxCell>
        <mxCell id="7h5hDAGTXKlzVHHUjLdl-46" value="PROPERTY" style="rounded=0;whiteSpace=wrap;html=1;" parent="1" vertex="1">
          <mxGeometry x="-260" y="390" width="120" height="60" as="geometry" />
        </mxCell>
        <mxCell id="7h5hDAGTXKlzVHHUjLdl-47" value="" style="endArrow=none;html=1;rounded=0;exitX=0.5;exitY=0;exitDx=0;exitDy=0;entryX=0.5;entryY=0;entryDx=0;entryDy=0;" parent="1" source="7h5hDAGTXKlzVHHUjLdl-46" target="7h5hDAGTXKlzVHHUjLdl-48" edge="1">
          <mxGeometry width="50" height="50" relative="1" as="geometry">
            <mxPoint x="-140" y="410" as="sourcePoint" />
            <mxPoint x="20" y="350" as="targetPoint" />
            <Array as="points">
              <mxPoint x="-200" y="340" />
              <mxPoint x="-90" y="340" />
              <mxPoint x="45" y="340" />
            </Array>
          </mxGeometry>
        </mxCell>
        <mxCell id="7h5hDAGTXKlzVHHUjLdl-48" value="VEHICLE" style="rounded=0;whiteSpace=wrap;html=1;" parent="1" vertex="1">
          <mxGeometry x="-15" y="390" width="120" height="60" as="geometry" />
        </mxCell>
        <mxCell id="7h5hDAGTXKlzVHHUjLdl-49" value="" style="ellipse;whiteSpace=wrap;html=1;aspect=fixed;" parent="1" vertex="1">
          <mxGeometry x="155" y="430" width="10" height="10" as="geometry" />
        </mxCell>
        <mxCell id="7h5hDAGTXKlzVHHUjLdl-50" value="" style="ellipse;whiteSpace=wrap;html=1;aspect=fixed;fillColor=#007FFF;" parent="1" vertex="1">
          <mxGeometry x="155" y="390" width="10" height="10" as="geometry" />
        </mxCell>
        <mxCell id="7h5hDAGTXKlzVHHUjLdl-51" value="price" style="text;html=1;align=center;verticalAlign=middle;resizable=0;points=[];autosize=1;strokeColor=none;fillColor=none;" parent="1" vertex="1">
          <mxGeometry x="165" y="420" width="50" height="30" as="geometry" />
        </mxCell>
        <mxCell id="7h5hDAGTXKlzVHHUjLdl-52" value="" style="endArrow=none;html=1;rounded=0;exitX=0;exitY=0.5;exitDx=0;exitDy=0;entryX=1.008;entryY=0.707;entryDx=0;entryDy=0;entryPerimeter=0;" parent="1" source="7h5hDAGTXKlzVHHUjLdl-49" target="7h5hDAGTXKlzVHHUjLdl-48" edge="1">
          <mxGeometry width="50" height="50" relative="1" as="geometry">
            <mxPoint x="240" y="452.5" as="sourcePoint" />
            <mxPoint x="120" y="430" as="targetPoint" />
            <Array as="points" />
          </mxGeometry>
        </mxCell>
        <mxCell id="7h5hDAGTXKlzVHHUjLdl-53" value="" style="endArrow=none;html=1;rounded=0;exitX=0;exitY=0.5;exitDx=0;exitDy=0;entryX=1.005;entryY=0.18;entryDx=0;entryDy=0;entryPerimeter=0;" parent="1" source="7h5hDAGTXKlzVHHUjLdl-50" target="7h5hDAGTXKlzVHHUjLdl-48" edge="1">
          <mxGeometry width="50" height="50" relative="1" as="geometry">
            <mxPoint x="245" y="427.5" as="sourcePoint" />
            <mxPoint x="120" y="400" as="targetPoint" />
            <Array as="points">
              <mxPoint x="150" y="395" />
            </Array>
          </mxGeometry>
        </mxCell>
        <mxCell id="7h5hDAGTXKlzVHHUjLdl-54" value="number_plate" style="text;html=1;align=center;verticalAlign=middle;resizable=0;points=[];autosize=1;strokeColor=none;fillColor=none;" parent="1" vertex="1">
          <mxGeometry x="160" y="380" width="100" height="30" as="geometry" />
        </mxCell>
        <mxCell id="7h5hDAGTXKlzVHHUjLdl-55" value="" style="ellipse;whiteSpace=wrap;html=1;aspect=fixed;" parent="1" vertex="1">
          <mxGeometry x="-310" y="390" width="10" height="10" as="geometry" />
        </mxCell>
        <mxCell id="7h5hDAGTXKlzVHHUjLdl-57" value="area" style="text;html=1;align=center;verticalAlign=middle;resizable=0;points=[];autosize=1;strokeColor=none;fillColor=none;" parent="1" vertex="1">
          <mxGeometry x="-360" y="380" width="50" height="30" as="geometry" />
        </mxCell>
        <mxCell id="7h5hDAGTXKlzVHHUjLdl-58" value="" style="endArrow=none;html=1;rounded=0;exitX=1;exitY=0.5;exitDx=0;exitDy=0;entryX=0.003;entryY=0.087;entryDx=0;entryDy=0;entryPerimeter=0;" parent="1" source="7h5hDAGTXKlzVHHUjLdl-55" target="7h5hDAGTXKlzVHHUjLdl-46" edge="1">
          <mxGeometry width="50" height="50" relative="1" as="geometry">
            <mxPoint x="-266" y="442.5" as="sourcePoint" />
            <mxPoint x="-400" y="422" as="targetPoint" />
            <Array as="points" />
          </mxGeometry>
        </mxCell>
        <mxCell id="7h5hDAGTXKlzVHHUjLdl-60" value="address" style="ellipse;whiteSpace=wrap;html=1;" parent="1" vertex="1">
          <mxGeometry x="-377.5" y="420" width="65" height="30" as="geometry" />
        </mxCell>
        <mxCell id="7h5hDAGTXKlzVHHUjLdl-62" value="street" style="text;html=1;align=center;verticalAlign=middle;resizable=0;points=[];autosize=1;strokeColor=none;fillColor=none;" parent="1" vertex="1">
          <mxGeometry x="-475" y="430" width="50" height="30" as="geometry" />
        </mxCell>
        <mxCell id="7h5hDAGTXKlzVHHUjLdl-63" value="" style="ellipse;whiteSpace=wrap;html=1;aspect=fixed;fillColor=none;" parent="1" vertex="1">
          <mxGeometry x="-420" y="420" width="10" height="10" as="geometry" />
        </mxCell>
        <mxCell id="7h5hDAGTXKlzVHHUjLdl-64" value="city" style="text;html=1;align=center;verticalAlign=middle;resizable=0;points=[];autosize=1;strokeColor=none;fillColor=none;" parent="1" vertex="1">
          <mxGeometry x="-465" y="410" width="40" height="30" as="geometry" />
        </mxCell>
        <mxCell id="7h5hDAGTXKlzVHHUjLdl-67" value="" style="ellipse;whiteSpace=wrap;html=1;aspect=fixed;" parent="1" vertex="1">
          <mxGeometry x="-420" y="440" width="10" height="10" as="geometry" />
        </mxCell>
        <mxCell id="7h5hDAGTXKlzVHHUjLdl-69" value="" style="endArrow=none;html=1;rounded=0;entryX=0.001;entryY=0.683;entryDx=0;entryDy=0;entryPerimeter=0;exitX=1;exitY=0.5;exitDx=0;exitDy=0;" parent="1" source="7h5hDAGTXKlzVHHUjLdl-60" target="7h5hDAGTXKlzVHHUjLdl-46" edge="1">
          <mxGeometry width="50" height="50" relative="1" as="geometry">
            <mxPoint x="-410" y="520" as="sourcePoint" />
            <mxPoint x="-360" y="470" as="targetPoint" />
          </mxGeometry>
        </mxCell>
        <mxCell id="7h5hDAGTXKlzVHHUjLdl-71" value="" style="endArrow=none;html=1;rounded=0;entryX=0.107;entryY=0.185;entryDx=0;entryDy=0;entryPerimeter=0;exitX=1;exitY=0.5;exitDx=0;exitDy=0;" parent="1" source="7h5hDAGTXKlzVHHUjLdl-63" target="7h5hDAGTXKlzVHHUjLdl-60" edge="1">
          <mxGeometry width="50" height="50" relative="1" as="geometry">
            <mxPoint x="-440" y="480" as="sourcePoint" />
            <mxPoint x="-390" y="430" as="targetPoint" />
            <Array as="points">
              <mxPoint x="-390" y="420" />
            </Array>
          </mxGeometry>
        </mxCell>
        <mxCell id="7h5hDAGTXKlzVHHUjLdl-72" value="" style="endArrow=none;html=1;rounded=0;entryX=0;entryY=0.5;entryDx=0;entryDy=0;exitX=0.946;exitY=0.372;exitDx=0;exitDy=0;exitPerimeter=0;" parent="1" source="7h5hDAGTXKlzVHHUjLdl-67" target="7h5hDAGTXKlzVHHUjLdl-60" edge="1">
          <mxGeometry width="50" height="50" relative="1" as="geometry">
            <mxPoint x="-430" y="470" as="sourcePoint" />
            <mxPoint x="-380" y="420" as="targetPoint" />
            <Array as="points">
              <mxPoint x="-390" y="440" />
            </Array>
          </mxGeometry>
        </mxCell>
        <mxCell id="7h5hDAGTXKlzVHHUjLdl-73" value="" style="ellipse;whiteSpace=wrap;html=1;aspect=fixed;fillColor=none;" parent="1" vertex="1">
          <mxGeometry x="-420" y="460" width="10" height="10" as="geometry" />
        </mxCell>
        <mxCell id="7h5hDAGTXKlzVHHUjLdl-74" value="" style="endArrow=none;html=1;rounded=0;entryX=0.121;entryY=0.867;entryDx=0;entryDy=0;entryPerimeter=0;exitX=1;exitY=0.5;exitDx=0;exitDy=0;" parent="1" source="7h5hDAGTXKlzVHHUjLdl-73" target="7h5hDAGTXKlzVHHUjLdl-60" edge="1">
          <mxGeometry width="50" height="50" relative="1" as="geometry">
            <mxPoint x="-440" y="530" as="sourcePoint" />
            <mxPoint x="-371" y="476" as="targetPoint" />
            <Array as="points">
              <mxPoint x="-380" y="460" />
            </Array>
          </mxGeometry>
        </mxCell>
        <mxCell id="7h5hDAGTXKlzVHHUjLdl-75" value="" style="endArrow=none;html=1;rounded=0;entryX=0.316;entryY=1.028;entryDx=0;entryDy=0;exitX=0.946;exitY=0.372;exitDx=0;exitDy=0;exitPerimeter=0;entryPerimeter=0;" parent="1" source="7h5hDAGTXKlzVHHUjLdl-76" target="7h5hDAGTXKlzVHHUjLdl-60" edge="1">
          <mxGeometry width="50" height="50" relative="1" as="geometry">
            <mxPoint x="-430" y="520" as="sourcePoint" />
            <mxPoint x="-378" y="485" as="targetPoint" />
            <Array as="points">
              <mxPoint x="-370" y="480" />
            </Array>
          </mxGeometry>
        </mxCell>
        <mxCell id="7h5hDAGTXKlzVHHUjLdl-76" value="" style="ellipse;whiteSpace=wrap;html=1;aspect=fixed;" parent="1" vertex="1">
          <mxGeometry x="-420" y="490" width="10" height="10" as="geometry" />
        </mxCell>
        <mxCell id="7h5hDAGTXKlzVHHUjLdl-77" value="unit" style="text;html=1;align=center;verticalAlign=middle;resizable=0;points=[];autosize=1;strokeColor=none;fillColor=none;" parent="1" vertex="1">
          <mxGeometry x="-465" y="480" width="40" height="30" as="geometry" />
        </mxCell>
        <mxCell id="7h5hDAGTXKlzVHHUjLdl-78" value="number" style="text;html=1;align=center;verticalAlign=middle;resizable=0;points=[];autosize=1;strokeColor=none;fillColor=none;" parent="1" vertex="1">
          <mxGeometry x="-490" y="450" width="70" height="30" as="geometry" />
        </mxCell>
        <mxCell id="7h5hDAGTXKlzVHHUjLdl-79" value="&lt;div style=&quot;font-size: 11px;&quot;&gt;&lt;font style=&quot;font-size: 6px;&quot;&gt;(0, 1)&lt;/font&gt;&lt;/div&gt;" style="text;html=1;align=center;verticalAlign=middle;resizable=0;points=[];autosize=1;strokeColor=none;fillColor=none;" parent="1" vertex="1">
          <mxGeometry x="-410" y="480" width="40" height="30" as="geometry" />
        </mxCell>
        <mxCell id="7h5hDAGTXKlzVHHUjLdl-80" value="&lt;div&gt;(t, e)&lt;/div&gt;" style="text;html=1;align=center;verticalAlign=middle;resizable=0;points=[];autosize=1;strokeColor=none;fillColor=none;" parent="1" vertex="1">
          <mxGeometry x="-94" y="268" width="50" height="30" as="geometry" />
        </mxCell>
        <mxCell id="7h5hDAGTXKlzVHHUjLdl-81" value="&lt;p style=&quot;line-height: 90%; font-size: 5px;&quot;&gt;total y exclusivo,&amp;nbsp;&lt;/p&gt;&lt;p style=&quot;line-height: 90%; font-size: 5px;&quot;&gt;parcial y superpuesto&lt;br style=&quot;font-size: 5px;&quot;&gt;&lt;/p&gt;" style="text;html=1;align=center;verticalAlign=middle;resizable=0;points=[];autosize=1;strokeColor=none;fillColor=none;fontSize=5;" parent="1" vertex="1">
          <mxGeometry x="-95" y="280" width="70" height="40" as="geometry" />
        </mxCell>
        <mxCell id="VQSBWY82d0XTutbnmga4-1" value="insurances" style="shape=table;startSize=30;container=1;collapsible=1;childLayout=tableLayout;fixedRows=1;rowLines=0;fontStyle=1;align=center;resizeLast=1;html=1;" vertex="1" parent="1">
          <mxGeometry x="-340" y="620" width="180" height="240" as="geometry" />
        </mxCell>
        <mxCell id="VQSBWY82d0XTutbnmga4-2" value="" style="shape=tableRow;horizontal=0;startSize=0;swimlaneHead=0;swimlaneBody=0;fillColor=none;collapsible=0;dropTarget=0;points=[[0,0.5],[1,0.5]];portConstraint=eastwest;top=0;left=0;right=0;bottom=1;" vertex="1" parent="VQSBWY82d0XTutbnmga4-1">
          <mxGeometry y="30" width="180" height="30" as="geometry" />
        </mxCell>
        <mxCell id="VQSBWY82d0XTutbnmga4-3" value="PK" style="shape=partialRectangle;connectable=0;fillColor=none;top=0;left=0;bottom=0;right=0;fontStyle=1;overflow=hidden;whiteSpace=wrap;html=1;" vertex="1" parent="VQSBWY82d0XTutbnmga4-2">
          <mxGeometry width="30" height="30" as="geometry">
            <mxRectangle width="30" height="30" as="alternateBounds" />
          </mxGeometry>
        </mxCell>
        <mxCell id="VQSBWY82d0XTutbnmga4-4" value="id" style="shape=partialRectangle;connectable=0;fillColor=none;top=0;left=0;bottom=0;right=0;align=left;spacingLeft=6;fontStyle=5;overflow=hidden;whiteSpace=wrap;html=1;" vertex="1" parent="VQSBWY82d0XTutbnmga4-2">
          <mxGeometry x="30" width="150" height="30" as="geometry">
            <mxRectangle width="150" height="30" as="alternateBounds" />
          </mxGeometry>
        </mxCell>
        <mxCell id="VQSBWY82d0XTutbnmga4-34" style="shape=tableRow;horizontal=0;startSize=0;swimlaneHead=0;swimlaneBody=0;fillColor=none;collapsible=0;dropTarget=0;points=[[0,0.5],[1,0.5]];portConstraint=eastwest;top=0;left=0;right=0;bottom=0;" vertex="1" parent="VQSBWY82d0XTutbnmga4-1">
          <mxGeometry y="60" width="180" height="30" as="geometry" />
        </mxCell>
        <mxCell id="VQSBWY82d0XTutbnmga4-35" value="FK" style="shape=partialRectangle;connectable=0;fillColor=none;top=0;left=0;bottom=0;right=0;editable=1;overflow=hidden;whiteSpace=wrap;html=1;" vertex="1" parent="VQSBWY82d0XTutbnmga4-34">
          <mxGeometry width="30" height="30" as="geometry">
            <mxRectangle width="30" height="30" as="alternateBounds" />
          </mxGeometry>
        </mxCell>
        <mxCell id="VQSBWY82d0XTutbnmga4-36" value="client_id " style="shape=partialRectangle;connectable=0;fillColor=none;top=0;left=0;bottom=0;right=0;align=left;spacingLeft=6;overflow=hidden;whiteSpace=wrap;html=1;" vertex="1" parent="VQSBWY82d0XTutbnmga4-34">
          <mxGeometry x="30" width="150" height="30" as="geometry">
            <mxRectangle width="150" height="30" as="alternateBounds" />
          </mxGeometry>
        </mxCell>
        <mxCell id="VQSBWY82d0XTutbnmga4-5" value="" style="shape=tableRow;horizontal=0;startSize=0;swimlaneHead=0;swimlaneBody=0;fillColor=none;collapsible=0;dropTarget=0;points=[[0,0.5],[1,0.5]];portConstraint=eastwest;top=0;left=0;right=0;bottom=0;" vertex="1" parent="VQSBWY82d0XTutbnmga4-1">
          <mxGeometry y="90" width="180" height="30" as="geometry" />
        </mxCell>
        <mxCell id="VQSBWY82d0XTutbnmga4-6" value="" style="shape=partialRectangle;connectable=0;fillColor=none;top=0;left=0;bottom=0;right=0;editable=1;overflow=hidden;whiteSpace=wrap;html=1;" vertex="1" parent="VQSBWY82d0XTutbnmga4-5">
          <mxGeometry width="30" height="30" as="geometry">
            <mxRectangle width="30" height="30" as="alternateBounds" />
          </mxGeometry>
        </mxCell>
        <mxCell id="VQSBWY82d0XTutbnmga4-7" value="percentage_covered" style="shape=partialRectangle;connectable=0;fillColor=none;top=0;left=0;bottom=0;right=0;align=left;spacingLeft=6;overflow=hidden;whiteSpace=wrap;html=1;" vertex="1" parent="VQSBWY82d0XTutbnmga4-5">
          <mxGeometry x="30" width="150" height="30" as="geometry">
            <mxRectangle width="150" height="30" as="alternateBounds" />
          </mxGeometry>
        </mxCell>
        <mxCell id="VQSBWY82d0XTutbnmga4-8" value="" style="shape=tableRow;horizontal=0;startSize=0;swimlaneHead=0;swimlaneBody=0;fillColor=none;collapsible=0;dropTarget=0;points=[[0,0.5],[1,0.5]];portConstraint=eastwest;top=0;left=0;right=0;bottom=0;" vertex="1" parent="VQSBWY82d0XTutbnmga4-1">
          <mxGeometry y="120" width="180" height="30" as="geometry" />
        </mxCell>
        <mxCell id="VQSBWY82d0XTutbnmga4-9" value="" style="shape=partialRectangle;connectable=0;fillColor=none;top=0;left=0;bottom=0;right=0;editable=1;overflow=hidden;whiteSpace=wrap;html=1;" vertex="1" parent="VQSBWY82d0XTutbnmga4-8">
          <mxGeometry width="30" height="30" as="geometry">
            <mxRectangle width="30" height="30" as="alternateBounds" />
          </mxGeometry>
        </mxCell>
        <mxCell id="VQSBWY82d0XTutbnmga4-10" value="start_date" style="shape=partialRectangle;connectable=0;fillColor=none;top=0;left=0;bottom=0;right=0;align=left;spacingLeft=6;overflow=hidden;whiteSpace=wrap;html=1;" vertex="1" parent="VQSBWY82d0XTutbnmga4-8">
          <mxGeometry x="30" width="150" height="30" as="geometry">
            <mxRectangle width="150" height="30" as="alternateBounds" />
          </mxGeometry>
        </mxCell>
        <mxCell id="VQSBWY82d0XTutbnmga4-11" value="" style="shape=tableRow;horizontal=0;startSize=0;swimlaneHead=0;swimlaneBody=0;fillColor=none;collapsible=0;dropTarget=0;points=[[0,0.5],[1,0.5]];portConstraint=eastwest;top=0;left=0;right=0;bottom=0;" vertex="1" parent="VQSBWY82d0XTutbnmga4-1">
          <mxGeometry y="150" width="180" height="30" as="geometry" />
        </mxCell>
        <mxCell id="VQSBWY82d0XTutbnmga4-12" value="" style="shape=partialRectangle;connectable=0;fillColor=none;top=0;left=0;bottom=0;right=0;editable=1;overflow=hidden;whiteSpace=wrap;html=1;" vertex="1" parent="VQSBWY82d0XTutbnmga4-11">
          <mxGeometry width="30" height="30" as="geometry">
            <mxRectangle width="30" height="30" as="alternateBounds" />
          </mxGeometry>
        </mxCell>
        <mxCell id="VQSBWY82d0XTutbnmga4-13" value="end_date" style="shape=partialRectangle;connectable=0;fillColor=none;top=0;left=0;bottom=0;right=0;align=left;spacingLeft=6;overflow=hidden;whiteSpace=wrap;html=1;" vertex="1" parent="VQSBWY82d0XTutbnmga4-11">
          <mxGeometry x="30" width="150" height="30" as="geometry">
            <mxRectangle width="150" height="30" as="alternateBounds" />
          </mxGeometry>
        </mxCell>
        <mxCell id="VQSBWY82d0XTutbnmga4-17" style="shape=tableRow;horizontal=0;startSize=0;swimlaneHead=0;swimlaneBody=0;fillColor=none;collapsible=0;dropTarget=0;points=[[0,0.5],[1,0.5]];portConstraint=eastwest;top=0;left=0;right=0;bottom=0;" vertex="1" parent="VQSBWY82d0XTutbnmga4-1">
          <mxGeometry y="180" width="180" height="30" as="geometry" />
        </mxCell>
        <mxCell id="VQSBWY82d0XTutbnmga4-18" style="shape=partialRectangle;connectable=0;fillColor=none;top=0;left=0;bottom=0;right=0;editable=1;overflow=hidden;whiteSpace=wrap;html=1;" vertex="1" parent="VQSBWY82d0XTutbnmga4-17">
          <mxGeometry width="30" height="30" as="geometry">
            <mxRectangle width="30" height="30" as="alternateBounds" />
          </mxGeometry>
        </mxCell>
        <mxCell id="VQSBWY82d0XTutbnmga4-19" value="annual_cost" style="shape=partialRectangle;connectable=0;fillColor=none;top=0;left=0;bottom=0;right=0;align=left;spacingLeft=6;overflow=hidden;whiteSpace=wrap;html=1;" vertex="1" parent="VQSBWY82d0XTutbnmga4-17">
          <mxGeometry x="30" width="150" height="30" as="geometry">
            <mxRectangle width="150" height="30" as="alternateBounds" />
          </mxGeometry>
        </mxCell>
        <mxCell id="VQSBWY82d0XTutbnmga4-14" style="shape=tableRow;horizontal=0;startSize=0;swimlaneHead=0;swimlaneBody=0;fillColor=none;collapsible=0;dropTarget=0;points=[[0,0.5],[1,0.5]];portConstraint=eastwest;top=0;left=0;right=0;bottom=0;" vertex="1" parent="VQSBWY82d0XTutbnmga4-1">
          <mxGeometry y="210" width="180" height="30" as="geometry" />
        </mxCell>
        <mxCell id="VQSBWY82d0XTutbnmga4-15" style="shape=partialRectangle;connectable=0;fillColor=none;top=0;left=0;bottom=0;right=0;editable=1;overflow=hidden;whiteSpace=wrap;html=1;" vertex="1" parent="VQSBWY82d0XTutbnmga4-14">
          <mxGeometry width="30" height="30" as="geometry">
            <mxRectangle width="30" height="30" as="alternateBounds" />
          </mxGeometry>
        </mxCell>
        <mxCell id="VQSBWY82d0XTutbnmga4-16" value="type" style="shape=partialRectangle;connectable=0;fillColor=none;top=0;left=0;bottom=0;right=0;align=left;spacingLeft=6;overflow=hidden;whiteSpace=wrap;html=1;" vertex="1" parent="VQSBWY82d0XTutbnmga4-14">
          <mxGeometry x="30" width="150" height="30" as="geometry">
            <mxRectangle width="150" height="30" as="alternateBounds" />
          </mxGeometry>
        </mxCell>
        <mxCell id="VQSBWY82d0XTutbnmga4-20" value="clients" style="shape=table;startSize=30;container=1;collapsible=1;childLayout=tableLayout;fixedRows=1;rowLines=0;fontStyle=1;align=center;resizeLast=1;html=1;" vertex="1" parent="1">
          <mxGeometry x="80" y="620" width="180" height="120" as="geometry" />
        </mxCell>
        <mxCell id="VQSBWY82d0XTutbnmga4-21" value="" style="shape=tableRow;horizontal=0;startSize=0;swimlaneHead=0;swimlaneBody=0;fillColor=none;collapsible=0;dropTarget=0;points=[[0,0.5],[1,0.5]];portConstraint=eastwest;top=0;left=0;right=0;bottom=1;" vertex="1" parent="VQSBWY82d0XTutbnmga4-20">
          <mxGeometry y="30" width="180" height="30" as="geometry" />
        </mxCell>
        <mxCell id="VQSBWY82d0XTutbnmga4-22" value="PK" style="shape=partialRectangle;connectable=0;fillColor=none;top=0;left=0;bottom=0;right=0;fontStyle=1;overflow=hidden;whiteSpace=wrap;html=1;" vertex="1" parent="VQSBWY82d0XTutbnmga4-21">
          <mxGeometry width="30" height="30" as="geometry">
            <mxRectangle width="30" height="30" as="alternateBounds" />
          </mxGeometry>
        </mxCell>
        <mxCell id="VQSBWY82d0XTutbnmga4-23" value="id" style="shape=partialRectangle;connectable=0;fillColor=none;top=0;left=0;bottom=0;right=0;align=left;spacingLeft=6;fontStyle=5;overflow=hidden;whiteSpace=wrap;html=1;" vertex="1" parent="VQSBWY82d0XTutbnmga4-21">
          <mxGeometry x="30" width="150" height="30" as="geometry">
            <mxRectangle width="150" height="30" as="alternateBounds" />
          </mxGeometry>
        </mxCell>
        <mxCell id="VQSBWY82d0XTutbnmga4-24" value="" style="shape=tableRow;horizontal=0;startSize=0;swimlaneHead=0;swimlaneBody=0;fillColor=none;collapsible=0;dropTarget=0;points=[[0,0.5],[1,0.5]];portConstraint=eastwest;top=0;left=0;right=0;bottom=0;" vertex="1" parent="VQSBWY82d0XTutbnmga4-20">
          <mxGeometry y="60" width="180" height="30" as="geometry" />
        </mxCell>
        <mxCell id="VQSBWY82d0XTutbnmga4-25" value="UQ" style="shape=partialRectangle;connectable=0;fillColor=none;top=0;left=0;bottom=0;right=0;editable=1;overflow=hidden;whiteSpace=wrap;html=1;" vertex="1" parent="VQSBWY82d0XTutbnmga4-24">
          <mxGeometry width="30" height="30" as="geometry">
            <mxRectangle width="30" height="30" as="alternateBounds" />
          </mxGeometry>
        </mxCell>
        <mxCell id="VQSBWY82d0XTutbnmga4-26" value="id_document_number" style="shape=partialRectangle;connectable=0;fillColor=none;top=0;left=0;bottom=0;right=0;align=left;spacingLeft=6;overflow=hidden;whiteSpace=wrap;html=1;" vertex="1" parent="VQSBWY82d0XTutbnmga4-24">
          <mxGeometry x="30" width="150" height="30" as="geometry">
            <mxRectangle width="150" height="30" as="alternateBounds" />
          </mxGeometry>
        </mxCell>
        <mxCell id="VQSBWY82d0XTutbnmga4-27" value="" style="shape=tableRow;horizontal=0;startSize=0;swimlaneHead=0;swimlaneBody=0;fillColor=none;collapsible=0;dropTarget=0;points=[[0,0.5],[1,0.5]];portConstraint=eastwest;top=0;left=0;right=0;bottom=0;" vertex="1" parent="VQSBWY82d0XTutbnmga4-20">
          <mxGeometry y="90" width="180" height="30" as="geometry" />
        </mxCell>
        <mxCell id="VQSBWY82d0XTutbnmga4-28" value="" style="shape=partialRectangle;connectable=0;fillColor=none;top=0;left=0;bottom=0;right=0;editable=1;overflow=hidden;whiteSpace=wrap;html=1;" vertex="1" parent="VQSBWY82d0XTutbnmga4-27">
          <mxGeometry width="30" height="30" as="geometry">
            <mxRectangle width="30" height="30" as="alternateBounds" />
          </mxGeometry>
        </mxCell>
        <mxCell id="VQSBWY82d0XTutbnmga4-29" value="name" style="shape=partialRectangle;connectable=0;fillColor=none;top=0;left=0;bottom=0;right=0;align=left;spacingLeft=6;overflow=hidden;whiteSpace=wrap;html=1;" vertex="1" parent="VQSBWY82d0XTutbnmga4-27">
          <mxGeometry x="30" width="150" height="30" as="geometry">
            <mxRectangle width="150" height="30" as="alternateBounds" />
          </mxGeometry>
        </mxCell>
        <mxCell id="VQSBWY82d0XTutbnmga4-33" value="" style="edgeStyle=entityRelationEdgeStyle;fontSize=12;html=1;endArrow=ERzeroToMany;startArrow=ERmandOne;rounded=0;exitX=0;exitY=0.5;exitDx=0;exitDy=0;" edge="1" parent="1" source="VQSBWY82d0XTutbnmga4-21" target="VQSBWY82d0XTutbnmga4-34">
          <mxGeometry width="100" height="100" relative="1" as="geometry">
            <mxPoint x="-60" y="740" as="sourcePoint" />
            <mxPoint x="40" y="640" as="targetPoint" />
            <Array as="points">
              <mxPoint x="-160" y="690" />
            </Array>
          </mxGeometry>
        </mxCell>
        <mxCell id="VQSBWY82d0XTutbnmga4-37" value="vehicles" style="shape=table;startSize=30;container=1;collapsible=1;childLayout=tableLayout;fixedRows=1;rowLines=0;fontStyle=1;align=center;resizeLast=1;html=1;" vertex="1" parent="1">
          <mxGeometry x="-520" y="920" width="180" height="120" as="geometry" />
        </mxCell>
        <mxCell id="VQSBWY82d0XTutbnmga4-38" value="" style="shape=tableRow;horizontal=0;startSize=0;swimlaneHead=0;swimlaneBody=0;fillColor=none;collapsible=0;dropTarget=0;points=[[0,0.5],[1,0.5]];portConstraint=eastwest;top=0;left=0;right=0;bottom=1;" vertex="1" parent="VQSBWY82d0XTutbnmga4-37">
          <mxGeometry y="30" width="180" height="30" as="geometry" />
        </mxCell>
        <mxCell id="VQSBWY82d0XTutbnmga4-39" value="PK, FK" style="shape=partialRectangle;connectable=0;fillColor=none;top=0;left=0;bottom=0;right=0;fontStyle=1;overflow=hidden;whiteSpace=wrap;html=1;" vertex="1" parent="VQSBWY82d0XTutbnmga4-38">
          <mxGeometry width="50" height="30" as="geometry">
            <mxRectangle width="50" height="30" as="alternateBounds" />
          </mxGeometry>
        </mxCell>
        <mxCell id="VQSBWY82d0XTutbnmga4-40" value="insurance_id" style="shape=partialRectangle;connectable=0;fillColor=none;top=0;left=0;bottom=0;right=0;align=left;spacingLeft=6;fontStyle=5;overflow=hidden;whiteSpace=wrap;html=1;" vertex="1" parent="VQSBWY82d0XTutbnmga4-38">
          <mxGeometry x="50" width="130" height="30" as="geometry">
            <mxRectangle width="130" height="30" as="alternateBounds" />
          </mxGeometry>
        </mxCell>
        <mxCell id="VQSBWY82d0XTutbnmga4-41" value="" style="shape=tableRow;horizontal=0;startSize=0;swimlaneHead=0;swimlaneBody=0;fillColor=none;collapsible=0;dropTarget=0;points=[[0,0.5],[1,0.5]];portConstraint=eastwest;top=0;left=0;right=0;bottom=0;" vertex="1" parent="VQSBWY82d0XTutbnmga4-37">
          <mxGeometry y="60" width="180" height="30" as="geometry" />
        </mxCell>
        <mxCell id="VQSBWY82d0XTutbnmga4-42" value="" style="shape=partialRectangle;connectable=0;fillColor=none;top=0;left=0;bottom=0;right=0;editable=1;overflow=hidden;whiteSpace=wrap;html=1;" vertex="1" parent="VQSBWY82d0XTutbnmga4-41">
          <mxGeometry width="50" height="30" as="geometry">
            <mxRectangle width="50" height="30" as="alternateBounds" />
          </mxGeometry>
        </mxCell>
        <mxCell id="VQSBWY82d0XTutbnmga4-43" value="price" style="shape=partialRectangle;connectable=0;fillColor=none;top=0;left=0;bottom=0;right=0;align=left;spacingLeft=6;overflow=hidden;whiteSpace=wrap;html=1;" vertex="1" parent="VQSBWY82d0XTutbnmga4-41">
          <mxGeometry x="50" width="130" height="30" as="geometry">
            <mxRectangle width="130" height="30" as="alternateBounds" />
          </mxGeometry>
        </mxCell>
        <mxCell id="VQSBWY82d0XTutbnmga4-44" value="" style="shape=tableRow;horizontal=0;startSize=0;swimlaneHead=0;swimlaneBody=0;fillColor=none;collapsible=0;dropTarget=0;points=[[0,0.5],[1,0.5]];portConstraint=eastwest;top=0;left=0;right=0;bottom=0;" vertex="1" parent="VQSBWY82d0XTutbnmga4-37">
          <mxGeometry y="90" width="180" height="30" as="geometry" />
        </mxCell>
        <mxCell id="VQSBWY82d0XTutbnmga4-45" value="UQ" style="shape=partialRectangle;connectable=0;fillColor=none;top=0;left=0;bottom=0;right=0;editable=1;overflow=hidden;whiteSpace=wrap;html=1;" vertex="1" parent="VQSBWY82d0XTutbnmga4-44">
          <mxGeometry width="50" height="30" as="geometry">
            <mxRectangle width="50" height="30" as="alternateBounds" />
          </mxGeometry>
        </mxCell>
        <mxCell id="VQSBWY82d0XTutbnmga4-46" value="plate_number" style="shape=partialRectangle;connectable=0;fillColor=none;top=0;left=0;bottom=0;right=0;align=left;spacingLeft=6;overflow=hidden;whiteSpace=wrap;html=1;" vertex="1" parent="VQSBWY82d0XTutbnmga4-44">
          <mxGeometry x="50" width="130" height="30" as="geometry">
            <mxRectangle width="130" height="30" as="alternateBounds" />
          </mxGeometry>
        </mxCell>
        <mxCell id="VQSBWY82d0XTutbnmga4-47" value="property" style="shape=table;startSize=30;container=1;collapsible=1;childLayout=tableLayout;fixedRows=1;rowLines=0;fontStyle=1;align=center;resizeLast=1;html=1;" vertex="1" parent="1">
          <mxGeometry x="-170" y="920" width="180" height="210" as="geometry" />
        </mxCell>
        <mxCell id="VQSBWY82d0XTutbnmga4-48" value="" style="shape=tableRow;horizontal=0;startSize=0;swimlaneHead=0;swimlaneBody=0;fillColor=none;collapsible=0;dropTarget=0;points=[[0,0.5],[1,0.5]];portConstraint=eastwest;top=0;left=0;right=0;bottom=1;" vertex="1" parent="VQSBWY82d0XTutbnmga4-47">
          <mxGeometry y="30" width="180" height="30" as="geometry" />
        </mxCell>
        <mxCell id="VQSBWY82d0XTutbnmga4-49" value="PK, FK" style="shape=partialRectangle;connectable=0;fillColor=none;top=0;left=0;bottom=0;right=0;fontStyle=1;overflow=hidden;whiteSpace=wrap;html=1;" vertex="1" parent="VQSBWY82d0XTutbnmga4-48">
          <mxGeometry width="50" height="30" as="geometry">
            <mxRectangle width="50" height="30" as="alternateBounds" />
          </mxGeometry>
        </mxCell>
        <mxCell id="VQSBWY82d0XTutbnmga4-50" value="insurance_id" style="shape=partialRectangle;connectable=0;fillColor=none;top=0;left=0;bottom=0;right=0;align=left;spacingLeft=6;fontStyle=5;overflow=hidden;whiteSpace=wrap;html=1;" vertex="1" parent="VQSBWY82d0XTutbnmga4-48">
          <mxGeometry x="50" width="130" height="30" as="geometry">
            <mxRectangle width="130" height="30" as="alternateBounds" />
          </mxGeometry>
        </mxCell>
        <mxCell id="VQSBWY82d0XTutbnmga4-51" value="" style="shape=tableRow;horizontal=0;startSize=0;swimlaneHead=0;swimlaneBody=0;fillColor=none;collapsible=0;dropTarget=0;points=[[0,0.5],[1,0.5]];portConstraint=eastwest;top=0;left=0;right=0;bottom=0;" vertex="1" parent="VQSBWY82d0XTutbnmga4-47">
          <mxGeometry y="60" width="180" height="30" as="geometry" />
        </mxCell>
        <mxCell id="VQSBWY82d0XTutbnmga4-52" value="" style="shape=partialRectangle;connectable=0;fillColor=none;top=0;left=0;bottom=0;right=0;editable=1;overflow=hidden;whiteSpace=wrap;html=1;" vertex="1" parent="VQSBWY82d0XTutbnmga4-51">
          <mxGeometry width="50" height="30" as="geometry">
            <mxRectangle width="50" height="30" as="alternateBounds" />
          </mxGeometry>
        </mxCell>
        <mxCell id="VQSBWY82d0XTutbnmga4-53" value="area" style="shape=partialRectangle;connectable=0;fillColor=none;top=0;left=0;bottom=0;right=0;align=left;spacingLeft=6;overflow=hidden;whiteSpace=wrap;html=1;" vertex="1" parent="VQSBWY82d0XTutbnmga4-51">
          <mxGeometry x="50" width="130" height="30" as="geometry">
            <mxRectangle width="130" height="30" as="alternateBounds" />
          </mxGeometry>
        </mxCell>
        <mxCell id="VQSBWY82d0XTutbnmga4-54" value="" style="shape=tableRow;horizontal=0;startSize=0;swimlaneHead=0;swimlaneBody=0;fillColor=none;collapsible=0;dropTarget=0;points=[[0,0.5],[1,0.5]];portConstraint=eastwest;top=0;left=0;right=0;bottom=0;" vertex="1" parent="VQSBWY82d0XTutbnmga4-47">
          <mxGeometry y="90" width="180" height="30" as="geometry" />
        </mxCell>
        <mxCell id="VQSBWY82d0XTutbnmga4-55" value="" style="shape=partialRectangle;connectable=0;fillColor=none;top=0;left=0;bottom=0;right=0;editable=1;overflow=hidden;whiteSpace=wrap;html=1;" vertex="1" parent="VQSBWY82d0XTutbnmga4-54">
          <mxGeometry width="50" height="30" as="geometry">
            <mxRectangle width="50" height="30" as="alternateBounds" />
          </mxGeometry>
        </mxCell>
        <mxCell id="VQSBWY82d0XTutbnmga4-56" value="city" style="shape=partialRectangle;connectable=0;fillColor=none;top=0;left=0;bottom=0;right=0;align=left;spacingLeft=6;overflow=hidden;whiteSpace=wrap;html=1;" vertex="1" parent="VQSBWY82d0XTutbnmga4-54">
          <mxGeometry x="50" width="130" height="30" as="geometry">
            <mxRectangle width="130" height="30" as="alternateBounds" />
          </mxGeometry>
        </mxCell>
        <mxCell id="VQSBWY82d0XTutbnmga4-57" style="shape=tableRow;horizontal=0;startSize=0;swimlaneHead=0;swimlaneBody=0;fillColor=none;collapsible=0;dropTarget=0;points=[[0,0.5],[1,0.5]];portConstraint=eastwest;top=0;left=0;right=0;bottom=0;" vertex="1" parent="VQSBWY82d0XTutbnmga4-47">
          <mxGeometry y="120" width="180" height="30" as="geometry" />
        </mxCell>
        <mxCell id="VQSBWY82d0XTutbnmga4-58" style="shape=partialRectangle;connectable=0;fillColor=none;top=0;left=0;bottom=0;right=0;editable=1;overflow=hidden;whiteSpace=wrap;html=1;" vertex="1" parent="VQSBWY82d0XTutbnmga4-57">
          <mxGeometry width="50" height="30" as="geometry">
            <mxRectangle width="50" height="30" as="alternateBounds" />
          </mxGeometry>
        </mxCell>
        <mxCell id="VQSBWY82d0XTutbnmga4-59" value="street" style="shape=partialRectangle;connectable=0;fillColor=none;top=0;left=0;bottom=0;right=0;align=left;spacingLeft=6;overflow=hidden;whiteSpace=wrap;html=1;" vertex="1" parent="VQSBWY82d0XTutbnmga4-57">
          <mxGeometry x="50" width="130" height="30" as="geometry">
            <mxRectangle width="130" height="30" as="alternateBounds" />
          </mxGeometry>
        </mxCell>
        <mxCell id="VQSBWY82d0XTutbnmga4-60" style="shape=tableRow;horizontal=0;startSize=0;swimlaneHead=0;swimlaneBody=0;fillColor=none;collapsible=0;dropTarget=0;points=[[0,0.5],[1,0.5]];portConstraint=eastwest;top=0;left=0;right=0;bottom=0;" vertex="1" parent="VQSBWY82d0XTutbnmga4-47">
          <mxGeometry y="150" width="180" height="30" as="geometry" />
        </mxCell>
        <mxCell id="VQSBWY82d0XTutbnmga4-61" style="shape=partialRectangle;connectable=0;fillColor=none;top=0;left=0;bottom=0;right=0;editable=1;overflow=hidden;whiteSpace=wrap;html=1;" vertex="1" parent="VQSBWY82d0XTutbnmga4-60">
          <mxGeometry width="50" height="30" as="geometry">
            <mxRectangle width="50" height="30" as="alternateBounds" />
          </mxGeometry>
        </mxCell>
        <mxCell id="VQSBWY82d0XTutbnmga4-62" value="number" style="shape=partialRectangle;connectable=0;fillColor=none;top=0;left=0;bottom=0;right=0;align=left;spacingLeft=6;overflow=hidden;whiteSpace=wrap;html=1;" vertex="1" parent="VQSBWY82d0XTutbnmga4-60">
          <mxGeometry x="50" width="130" height="30" as="geometry">
            <mxRectangle width="130" height="30" as="alternateBounds" />
          </mxGeometry>
        </mxCell>
        <mxCell id="VQSBWY82d0XTutbnmga4-63" style="shape=tableRow;horizontal=0;startSize=0;swimlaneHead=0;swimlaneBody=0;fillColor=none;collapsible=0;dropTarget=0;points=[[0,0.5],[1,0.5]];portConstraint=eastwest;top=0;left=0;right=0;bottom=0;" vertex="1" parent="VQSBWY82d0XTutbnmga4-47">
          <mxGeometry y="180" width="180" height="30" as="geometry" />
        </mxCell>
        <mxCell id="VQSBWY82d0XTutbnmga4-64" value="N" style="shape=partialRectangle;connectable=0;fillColor=none;top=0;left=0;bottom=0;right=0;editable=1;overflow=hidden;whiteSpace=wrap;html=1;" vertex="1" parent="VQSBWY82d0XTutbnmga4-63">
          <mxGeometry width="50" height="30" as="geometry">
            <mxRectangle width="50" height="30" as="alternateBounds" />
          </mxGeometry>
        </mxCell>
        <mxCell id="VQSBWY82d0XTutbnmga4-65" value="unit" style="shape=partialRectangle;connectable=0;fillColor=none;top=0;left=0;bottom=0;right=0;align=left;spacingLeft=6;overflow=hidden;whiteSpace=wrap;html=1;" vertex="1" parent="VQSBWY82d0XTutbnmga4-63">
          <mxGeometry x="50" width="130" height="30" as="geometry">
            <mxRectangle width="130" height="30" as="alternateBounds" />
          </mxGeometry>
        </mxCell>
        <mxCell id="VQSBWY82d0XTutbnmga4-66" value="" style="fontSize=12;html=1;endArrow=ERzeroToOne;startArrow=ERmandOne;rounded=0;entryX=1;entryY=0.5;entryDx=0;entryDy=0;exitX=0.22;exitY=1.048;exitDx=0;exitDy=0;exitPerimeter=0;" edge="1" parent="1" source="VQSBWY82d0XTutbnmga4-14" target="VQSBWY82d0XTutbnmga4-38">
          <mxGeometry width="100" height="100" relative="1" as="geometry">
            <mxPoint x="-310" y="1090" as="sourcePoint" />
            <mxPoint x="-210" y="990" as="targetPoint" />
            <Array as="points">
              <mxPoint x="-300" y="965" />
            </Array>
          </mxGeometry>
        </mxCell>
        <mxCell id="VQSBWY82d0XTutbnmga4-67" value="" style="fontSize=12;html=1;endArrow=ERzeroToOne;startArrow=ERmandOne;rounded=0;entryX=0;entryY=0.5;entryDx=0;entryDy=0;exitX=0.606;exitY=0.99;exitDx=0;exitDy=0;exitPerimeter=0;" edge="1" parent="1" source="VQSBWY82d0XTutbnmga4-14" target="VQSBWY82d0XTutbnmga4-48">
          <mxGeometry width="100" height="100" relative="1" as="geometry">
            <mxPoint x="-235" y="871" as="sourcePoint" />
            <mxPoint x="-275" y="975" as="targetPoint" />
            <Array as="points">
              <mxPoint x="-231" y="965" />
            </Array>
          </mxGeometry>
        </mxCell>
        <mxCell id="VQSBWY82d0XTutbnmga4-68" value="&lt;div&gt;Update: CASCADE&lt;/div&gt;&lt;div&gt;Delete: RESTRICT&lt;br&gt;&lt;/div&gt;" style="text;html=1;align=center;verticalAlign=middle;resizable=0;points=[];autosize=1;strokeColor=none;fillColor=none;" vertex="1" parent="1">
          <mxGeometry x="-135" y="623" width="130" height="40" as="geometry" />
        </mxCell>
        <mxCell id="VQSBWY82d0XTutbnmga4-69" value="&lt;div&gt;Update: CASCADE&lt;/div&gt;&lt;div&gt;Delete: RESTRICT&lt;br&gt;&lt;/div&gt;" style="text;html=1;align=center;verticalAlign=middle;resizable=0;points=[];autosize=1;strokeColor=none;fillColor=none;" vertex="1" parent="1">
          <mxGeometry x="-215" y="870" width="130" height="40" as="geometry" />
        </mxCell>
        <mxCell id="VQSBWY82d0XTutbnmga4-70" value="&lt;div&gt;Update: CASCADE&lt;/div&gt;&lt;div&gt;Delete: RESTRICT&lt;br&gt;&lt;/div&gt;" style="text;html=1;align=center;verticalAlign=middle;resizable=0;points=[];autosize=1;strokeColor=none;fillColor=none;" vertex="1" parent="1">
          <mxGeometry x="-450" y="870" width="130" height="40" as="geometry" />
        </mxCell>
      </root>
    </mxGraphModel>
  </diagram>
</mxfile>
